<?xml version="1.0" encoding="UTF-8"?>
<svg version="1.1" xmlns="http://www.w3.org/2000/svg" width="750" height="750">
<path d="M0 0 C247.5 0 495 0 750 0 C750 247.5 750 495 750 750 C502.5 750 255 750 0 750 C0 502.5 0 255 0 0 Z " fill="#E7E7E7" transform="translate(0,0)"/>
<path d="M0 0 C3.03978021 0.68164768 4.80055419 2.23591662 6.93359375 4.43359375 C8.50294969 7.57230563 8.28560478 9.97215197 7.93359375 13.43359375 C5.49609375 16.30859375 5.49609375 16.30859375 2.93359375 18.43359375 C2.60359375 18.76359375 2.27359375 19.09359375 1.93359375 19.43359375 C-2.23041587 19.83397929 -4.38891321 19.87543703 -7.94140625 17.55859375 C-10.85351283 14.64648717 -11.0270893 13.83331605 -11.44140625 9.62109375 C-11.37967942 6.23229105 -11.05507416 5.41659561 -9.06640625 2.43359375 C-5.71397384 0.19863881 -3.9372435 -0.24561254 0 0 Z " fill="#5573FF" transform="translate(672.06640625,227.56640625)"/>
</svg>
